<svg width="20" height="9" viewBox="0 0 20 9" fill="none" xmlns="http://www.w3.org/2000/svg">
<path d="M20 2.69791C20 3.0382 19.7752 3.31479 19.444 3.3877L18.4109 3.61254V6.96712C18.8728 7.14339 19.204 7.7176 19.207 8.41647L19.1341 8.34354C18.9639 8.19162 18.7483 8.10659 18.5233 8.10659C18.4807 8.10659 18.4382 8.10961 18.4018 8.11567L17.01 8.29799C17.0495 7.65388 17.3686 7.13113 17.803 6.96712V3.74312L10.3189 5.3627C10.2155 5.38706 10.1062 5.39614 9.99979 5.39614C9.89039 5.39614 9.78402 5.38706 9.68371 5.3627L0.552862 3.38758C0.221798 3.31479 0 3.03821 0 2.69794C0 2.36068 0.221812 2.08409 0.553009 2.01118L9.68386 0.0330329C9.88737 -0.00948332 10.1093 -0.0125126 10.3189 0.0330329L19.4435 2.01118C19.7748 2.08426 19.9997 2.36069 19.9997 2.69794L20 2.69791Z" fill="#A1A1A1"/>
</svg>
