<svg width="19" height="14" viewBox="0 0 19 14" fill="none" xmlns="http://www.w3.org/2000/svg">
<path d="M12.5354 8.12278L9.22046 4.80781C9.13264 4.71999 9.06678 4.6212 9.02287 4.51144C8.97897 4.40167 8.95701 4.29556 8.95701 4.19311C8.95701 4.07603 8.97897 3.96626 9.02287 3.86381C9.06678 3.76136 9.13264 3.66623 9.22046 3.57841L12.5574 0.241488C12.7184 0.0804957 12.9196 0 13.1611 0C13.4026 0 13.6038 0.0878136 13.7648 0.263441C13.9404 0.439069 14.0283 0.643968 14.0283 0.878138C14.0283 1.11231 13.9404 1.31721 13.7648 1.49284L11.9427 3.31497H17.6945C17.9433 3.31497 18.1519 3.39913 18.3202 3.56744C18.4885 3.73575 18.5726 3.9443 18.5726 4.19311C18.5726 4.44192 18.4885 4.65048 18.3202 4.81879C18.1519 4.98709 17.9433 5.07125 17.6945 5.07125H11.9427L13.7868 6.91534C13.9478 7.07633 14.0283 7.27391 14.0283 7.50808C14.0283 7.74225 13.9404 7.94715 13.7648 8.12278C13.6038 8.29841 13.4026 8.38622 13.1611 8.38622C12.9196 8.38622 12.7111 8.29841 12.5354 8.12278ZM4.80781 13.699C4.9688 13.8746 5.17004 13.9624 5.41153 13.9624C5.65302 13.9624 5.86157 13.8746 6.0372 13.699L9.35217 10.384C9.43999 10.2962 9.50585 10.1974 9.54976 10.0876C9.59366 9.97785 9.61562 9.87174 9.61562 9.76929C9.61562 9.65221 9.59366 9.54244 9.54976 9.43999C9.50585 9.33754 9.43999 9.24241 9.35217 9.15459L6.01525 5.81767C5.85426 5.65668 5.65302 5.57618 5.41153 5.57618C5.17004 5.57618 4.9688 5.66399 4.80781 5.83962C4.63218 6.01525 4.54437 6.22015 4.54437 6.45432C4.54437 6.68849 4.63218 6.89339 4.80781 7.06902L6.6519 8.89115H0.878139C0.629333 8.89115 0.420775 8.97531 0.252465 9.14362C0.084155 9.31193 0 9.52048 0 9.76929C0 10.0181 0.084155 10.2267 0.252465 10.395C0.420775 10.5633 0.629333 10.6474 0.878139 10.6474H6.6519L4.78585 12.4915C4.62486 12.6525 4.54437 12.8501 4.54437 13.0843C4.54437 13.3184 4.63218 13.5233 4.80781 13.699Z" fill="#A1A1A1"/>
</svg>
