<svg width="17" height="17" viewBox="0 0 17 17" fill="none" xmlns="http://www.w3.org/2000/svg">
<path d="M4.57083 1.00038C4.49077 1.00756 4.41568 1.04224 4.35825 1.09846L1.10355 4.35845C1.03796 4.42331 1.00073 4.51153 1 4.60377V16.003C1 16.1957 1.15624 16.3519 1.34886 16.3519H11.9357C12.1283 16.3519 12.2845 16.1957 12.2845 16.003V10.606L15.8009 4.48414C16.2136 3.76523 15.9637 2.83835 15.2449 2.42342C15.0652 2.31974 14.8724 2.25647 14.6779 2.23262C14.0943 2.16119 13.4956 2.4351 13.1842 2.97405L7.61805 12.5687C7.57947 12.6326 7.56219 12.707 7.56901 12.7813L7.77624 14.8147C7.78792 14.925 7.85144 15.0232 7.94709 15.079C8.04285 15.135 8.15955 15.1421 8.2614 15.0981L10.0931 14.2859C10.162 14.2557 10.2194 14.2041 10.2567 14.1388L11.5868 11.8219V15.6541H1.69781V4.74554L4.43984 2.00895V4.21133C4.43984 4.25197 4.39117 4.39604 4.29808 4.5002C4.20511 4.60437 4.09548 4.66375 4.0092 4.66375H2.96794C2.8746 4.66241 2.78456 4.69867 2.718 4.76426C2.65156 4.82973 2.61408 4.91929 2.61408 5.01262C2.61408 5.10608 2.65156 5.19552 2.718 5.26111C2.78456 5.32669 2.8746 5.36283 2.96794 5.36162H4.0092C4.35115 5.36162 4.63039 5.17751 4.82144 4.9636C5.01249 4.7498 5.13757 4.50106 5.13757 4.21135V1.69818H11.5868V2.89751C11.5855 2.99085 11.6216 3.08089 11.6872 3.14745C11.7528 3.21389 11.8423 3.25137 11.9357 3.25137C12.0292 3.25137 12.1186 3.21389 12.1842 3.14745C12.2498 3.08089 12.2859 2.99085 12.2846 2.89751V1.34932C12.2846 1.15657 12.1283 1.00046 11.9357 1.00046H4.60331C4.59236 0.999848 4.58153 0.999848 4.57057 1.00046L4.57083 1.00038ZM14.4707 2.91376C14.5098 2.91303 14.5514 2.91412 14.5907 2.91924C14.6953 2.93286 14.8028 2.97132 14.9014 3.02826C15.296 3.25606 15.423 3.73901 15.1957 4.13498L11.6632 10.2843C11.6398 10.3138 11.6214 10.3469 11.6087 10.3823L9.70612 13.6916L8.41954 14.264L8.28873 12.9446L9.0192 13.3808C9.09878 13.4292 9.1943 13.4439 9.28471 13.4216C9.37512 13.3994 9.453 13.3419 9.50095 13.2621C9.54877 13.1822 9.56289 13.0865 9.54001 12.9962C9.51713 12.9059 9.45921 12.8285 9.37902 12.7811L8.57759 12.3014L12.917 4.82727L13.702 5.30161C13.7817 5.35564 13.8802 5.37426 13.9742 5.3532C14.0681 5.33203 14.1492 5.27314 14.1981 5.19015C14.2471 5.10728 14.2596 5.00786 14.2327 4.91538C14.206 4.8229 14.1421 4.74575 14.0563 4.70194L13.2658 4.22215L13.7892 3.32265C13.9386 3.06395 14.1975 2.9189 14.4706 2.91379L14.4707 2.91376ZM3.55156 6.69709C3.45896 6.70208 3.3722 6.7437 3.31038 6.81269C3.24856 6.88169 3.21656 6.97247 3.22167 7.06507C3.22678 7.15755 3.2684 7.24431 3.33739 7.30613C3.40639 7.36807 3.49716 7.39995 3.58965 7.39484H6.64248C6.73594 7.39618 6.82586 7.36004 6.89242 7.29445C6.95886 7.22886 6.99634 7.1393 6.99634 7.04597C6.99634 6.95251 6.95886 6.86307 6.89242 6.79748C6.82586 6.73189 6.73594 6.69576 6.64248 6.69709H3.58965C3.57699 6.69636 3.56421 6.69636 3.55156 6.69709L3.55156 6.69709ZM3.55156 8.73044C3.45896 8.73555 3.3722 8.77704 3.31038 8.84616C3.24856 8.91515 3.21656 9.00593 3.22167 9.09841C3.22678 9.1909 3.2684 9.27766 3.33739 9.33959C3.40639 9.40141 3.49716 9.43329 3.58965 9.42818H5.1488C5.24214 9.42952 5.33218 9.39338 5.39874 9.32779C5.46518 9.2622 5.50266 9.17276 5.50266 9.07931C5.50266 8.98598 5.46518 8.89642 5.39874 8.83083C5.33218 8.76524 5.24214 8.7291 5.1488 8.73044H3.58965C3.57699 8.72971 3.56421 8.72971 3.55156 8.73044L3.55156 8.73044ZM3.55156 10.7693C3.45896 10.7744 3.3722 10.816 3.31038 10.885C3.24856 10.954 3.21656 11.0448 3.22167 11.1372C3.22678 11.2298 3.2684 11.3165 3.33739 11.3784C3.40639 11.4402 3.49716 11.4721 3.58965 11.4671H6.64248C6.73594 11.4683 6.82586 11.4322 6.89242 11.3666C6.95886 11.301 6.99634 11.2116 6.99634 11.1181C6.99634 11.0248 6.95886 10.9352 6.89242 10.8698C6.82586 10.8042 6.73594 10.7679 6.64248 10.7693H3.58965C3.57699 10.7685 3.56421 10.7685 3.55156 10.7693L3.55156 10.7693ZM3.55156 12.8027C3.45896 12.8077 3.3722 12.8493 3.31038 12.9183C3.24856 12.9873 3.21656 13.0781 3.22167 13.1707C3.22678 13.2632 3.2684 13.35 3.33739 13.4118C3.40639 13.4737 3.49716 13.5056 3.58965 13.5005H5.1488C5.24214 13.5018 5.33218 13.4657 5.39874 13.4001C5.46518 13.3345 5.50266 13.2449 5.50266 13.1516C5.50266 13.0582 5.46518 12.9687 5.39874 12.9031C5.33218 12.8375 5.24214 12.8014 5.1488 12.8027H3.58965C3.57699 12.802 3.56421 12.802 3.55156 12.8027L3.55156 12.8027Z" fill="#A1A1A1" stroke="#A1A1A1" stroke-width="0.4"/>
</svg>
