<svg width="18" height="14" viewBox="0 0 18 14" fill="none" xmlns="http://www.w3.org/2000/svg">
<path d="M14.7683 3.58125C14.7683 3.67006 14.7331 3.75514 14.6703 3.81793C14.6076 3.88072 14.5224 3.91596 14.4337 3.91596H7.10549C6.92074 3.91596 6.7709 3.76611 6.7709 3.58125C6.7709 3.3965 6.92075 3.24666 7.10549 3.24666H14.4337C14.5224 3.24666 14.6076 3.2819 14.6703 3.34469C14.7331 3.40748 14.7683 3.49256 14.7683 3.58126V3.58125ZM7.10547 5.73801H9.31065C9.49552 5.73801 9.64525 5.58815 9.64525 5.40329C9.64525 5.21855 9.49551 5.0687 9.31065 5.0687H7.10547C6.92072 5.0687 6.77088 5.21855 6.77088 5.40329C6.77088 5.58816 6.92073 5.73801 7.10547 5.73801ZM7.10547 7.555L9.31065 7.55488C9.49552 7.55488 9.64525 7.40515 9.64525 7.22029C9.64525 7.03554 9.49551 6.8857 9.31065 6.8857H7.10547C6.92072 6.8857 6.77088 7.03555 6.77088 7.22029C6.77088 7.40516 6.92073 7.55488 7.10547 7.55488V7.555ZM7.10547 9.372L9.31065 9.37188C9.49552 9.37188 9.64525 9.22215 9.64525 9.03729C9.64525 8.85254 9.49551 8.7027 9.31065 8.7027H7.10547C6.92072 8.7027 6.77088 8.85255 6.77088 9.03729C6.77088 9.22215 6.92073 9.37188 7.10547 9.37188V9.372ZM14.4337 10.5197H7.10547C6.92072 10.5197 6.77088 10.6695 6.77088 10.8543C6.77088 11.0391 6.92073 11.1889 7.10547 11.1889H14.4337C14.6185 11.1889 14.7683 11.0391 14.7683 10.8543C14.7683 10.6695 14.6185 10.5197 14.4337 10.5197ZM14.7683 5.40177V9.03421C14.7683 9.12291 14.733 9.20798 14.6702 9.27077C14.6076 9.33356 14.5224 9.36881 14.4337 9.36881H11.1762C10.9913 9.36881 10.8416 9.21895 10.8416 9.03421V5.40357C10.8416 5.21882 10.9913 5.06898 11.1762 5.06898H14.4337C14.5224 5.06898 14.6076 5.10422 14.6702 5.16701C14.733 5.2298 14.7683 5.31488 14.7683 5.40357V5.40177ZM14.0991 5.73636H11.5108V8.69944H14.0991V5.73636ZM1.00014 11.3849V4.85977C1.00014 4.67502 1.14999 4.52518 1.33474 4.52518C1.5196 4.52518 1.66945 4.67503 1.66945 4.85977V11.3849C1.68649 11.8852 1.96331 12.3404 2.39967 12.5857C2.83602 12.8311 3.36882 12.8311 3.80517 12.5857C4.24152 12.3404 4.51836 11.8852 4.53539 11.3849V1.33459C4.53539 1.14984 4.68524 1 4.86998 1H16.6654C16.7542 1 16.8393 1.03525 16.9021 1.09803C16.9648 1.16082 17 1.2459 17 1.3346V11.6828C17.0005 12.1623 16.81 12.6223 16.4706 12.9611C16.1312 13.2997 15.6709 13.4894 15.1914 13.4881H3.10319C2.54544 13.4877 2.01083 13.2659 1.61645 12.8717C1.22222 12.4773 1.00048 11.9427 1 11.3851L1.00014 11.3849ZM4.63916 12.8187H15.1914C15.4923 12.8187 15.7808 12.6992 15.9935 12.4865C16.2063 12.2737 16.3258 11.9852 16.3258 11.6844V1.669H5.20619V11.385C5.20677 11.9174 5.00452 12.4301 4.64062 12.8188L4.63916 12.8187ZM2.76859 4.93004V11.3799C2.76859 11.5646 2.91844 11.7145 3.1033 11.7145C3.28805 11.7145 3.43789 11.5646 3.43789 11.3799V4.93004C3.43789 4.7453 3.28804 4.59545 3.1033 4.59545C2.91844 4.59545 2.76859 4.7453 2.76859 4.93004Z" fill="#A2A2A2" stroke="#A1A1A1" stroke-width="0.4"/>
</svg>
