<svg width="14" height="13" viewBox="0 0 14 13" fill="none" xmlns="http://www.w3.org/2000/svg">
<path d="M12.9884 10.7425L6.014 3.95849C5.829 3.77823 5.7431 3.51475 5.78417 3.25395C5.93828 2.28172 5.67381 1.42199 5.02042 0.769145C4.5105 0.259317 3.8556 -0.00738062 3.21025 0.000665092C2.6257 0.0134329 2.0689 0.220398 1.59962 0.599591C1.53186 0.6545 1.49507 0.738251 1.50096 0.825216C1.50739 0.91218 1.55534 0.990574 1.63007 1.03531L3.25999 2.01291C3.21133 2.50308 2.92177 2.93343 2.47802 3.16283L1.01937 2.28765C0.937764 2.23908 0.82687 2.24229 0.743668 2.28765C0.663133 2.33193 0.610365 2.41408 0.605007 2.50631C0.560721 3.24978 0.81724 3.95595 1.32608 4.49568C1.82848 5.02846 2.53564 5.33344 3.26688 5.33344C3.38581 5.33344 3.55911 5.30148 3.8125 5.23371C4.09036 5.15853 4.3901 5.24067 4.5917 5.44808L11.3453 12.3905C11.6099 12.655 11.9608 12.8001 12.3335 12.8001C12.9218 12.8001 13.4002 12.3217 13.4002 11.7329C13.4002 11.3601 13.2551 11.0092 12.9885 10.7426L12.9884 10.7425Z" fill="#A1A1A1"/>
</svg>
