<svg width="17" height="11" viewBox="0 0 17 11" fill="none" xmlns="http://www.w3.org/2000/svg">
<path d="M8.57107 9.99948C8.74562 9.98193 8.91078 9.9007 9.04276 9.76733L16.6943 2.1001C16.8684 1.93614 16.9776 1.69747 16.997 1.43858C17.0161 1.17969 16.944 0.922799 16.7967 0.726925C16.6495 0.53088 16.4399 0.412547 16.2159 0.39901C15.9918 0.385472 15.7727 0.477727 15.6087 0.654891L8.5 7.77575L1.39129 0.654891C1.22727 0.477732 1.00816 0.385472 0.784148 0.39901C0.56014 0.412547 0.350534 0.530876 0.203264 0.726925C0.0559824 0.922803 -0.0161423 1.17969 0.003042 1.43858C0.0223718 1.69747 0.131571 1.93614 0.305681 2.1001L7.95724 9.76733C8.1263 9.93797 8.34787 10.0217 8.57117 9.99948H8.57107Z" fill="#ABABAB"/>
</svg>
