<svg width="295" height="212" viewBox="0 0 295 212" fill="none" xmlns="http://www.w3.org/2000/svg">
<g clip-path="url(#clip0_1983_654)">
<path d="M161.114 167.174C161.114 172.556 157.517 176.918 153.081 176.918H115.551C111.113 176.918 107.516 172.556 107.516 167.174V152.227C107.516 146.844 111.113 142.48 115.551 142.48H153.081C157.517 142.48 161.114 146.844 161.114 152.227V167.174Z" fill="#E5E6E6"/>
<path d="M220.963 14.3711H47.6621C42.2806 14.3711 37.918 18.7337 37.918 24.1152V140.771C37.918 146.152 42.2806 150.515 47.6621 150.515H220.963C226.345 150.515 230.707 146.152 230.707 140.771V24.1152C230.707 18.7337 226.345 14.3711 220.963 14.3711Z" fill="#F0EFEF"/>
<path d="M223.888 128.473C223.888 133.005 219.832 136.678 214.831 136.678H53.7974C48.7959 136.678 44.7422 133.005 44.7422 128.473V30.2708C44.7422 25.7394 48.7959 22.0645 53.7974 22.0645H214.836C219.838 22.0645 223.894 25.7394 223.894 30.2708L223.888 128.473Z" fill="#B7CBCA"/>
<path d="M161.057 168.297H107.575L82.0859 185.515H186.546L161.057 168.297Z" fill="#E5E6E6"/>
<path d="M186.681 185.516H82.0859V188.138H186.681V185.516Z" fill="#CED1D0"/>
<path d="M281.172 209.699C281.172 210.704 280.235 211.52 279.078 211.52H15.9294C14.7761 211.52 13.8359 210.704 13.8359 209.699V194.474C13.8359 193.467 14.7723 192.65 15.9294 192.65H279.078C280.232 192.65 281.172 193.467 281.172 194.474V209.699Z" fill="#393C4D"/>
<path d="M295.004 205.236C295.004 206.243 293.999 207.059 292.758 207.059H2.24964C1.00878 207.059 0.00390625 206.243 0.00390625 205.236V190.011C0.00390625 189.004 1.00878 188.188 2.24964 188.188H292.758C293.999 188.188 295.004 189.004 295.004 190.011V205.236Z" fill="#686C74"/>
<path d="M154.606 141.045H115.43V143.896H154.606V141.045Z" fill="#323F48"/>
<g style="mix-blend-mode:soft-light">
<path d="M48.3634 150.518H222.454C227.836 150.518 230.447 112.292 230.447 106.909L203.006 76.3125L38.4023 139.246C40.0961 142.129 44.7779 150.518 48.3634 150.518Z" fill="white"/>
</g>
<path d="M64.5602 152.772H57.7412V142.6H41.4141V188.247H57.7412V178.811H64.5602C65.859 178.81 67.1041 178.293 68.0225 177.375C68.9408 176.456 69.4574 175.211 69.4589 173.912V157.673C69.4574 156.374 68.9409 155.129 68.0226 154.21C67.1043 153.291 65.8592 152.774 64.5602 152.772ZM66.155 173.912C66.1545 174.335 65.9864 174.741 65.6875 175.04C65.3886 175.34 64.9832 175.508 64.5602 175.509H57.7412V156.076H64.5602C64.9834 156.077 65.389 156.245 65.688 156.544C65.9871 156.844 66.155 157.25 66.155 157.673V173.912Z" fill="#BABABA"/>
<path d="M41.4174 142.6H22.3555V188.247H41.4174V142.6Z" fill="#CED1D0"/>
<path d="M38.5358 142.6H36.9258V153.006H38.5358V142.6Z" fill="#323F48"/>
<path d="M40.9519 152.5H34.5078V160.655H40.9519V152.5Z" fill="#A43E34"/>
<path d="M223.344 24.4785H45.8633V136.085H127.853C129.204 137.838 131.718 139.022 134.603 139.022C137.489 139.022 140.005 137.838 141.356 136.085H223.344V24.4785Z" fill="#546F83"/>
<path d="M219.304 26.4258H49.918V131.874H219.304V26.4258Z" fill="#C1B5A0"/>
<path d="M49.918 24.3388V132.171C49.918 132.171 90.6759 116.086 134.079 131.894V24.3654C134.079 24.3654 86.3443 19.2764 49.918 24.3388Z" fill="#D1C3A8"/>
<path d="M52.7344 22.5528V130.384C52.7344 130.384 98.5375 114.608 134.092 131.885L134.212 24.3704C134.212 24.3704 67.7655 15.4046 52.7344 22.5528Z" fill="#E0DBC3"/>
<path d="M60.25 9.14929L60.5393 116.384C60.5393 116.384 110.973 112.209 134.096 131.87L134.05 24.3707C134.05 24.3707 95.2261 3.48741 60.25 9.14929Z" fill="#EFE8D9"/>
<path d="M75.9844 0.228843V108.954C75.9844 108.954 108.937 104.187 134.084 131.891L134.352 24.1172C134.352 24.1172 113.556 -2.75149 75.9844 0.228843Z" fill="#FFFEF9"/>
<path d="M218.331 24.8406V132.673C218.331 132.673 177.143 116.116 134.074 131.897L134.504 24.8406C134.504 24.8406 181.91 19.7764 218.331 24.8406Z" fill="#D1C3A8"/>
<path d="M215.819 23.0433V130.874C215.819 130.874 169.641 114.602 134.086 131.879L134.307 24.8303C134.307 24.8303 200.79 15.895 215.819 23.0433Z" fill="#E0DBC3"/>
<path d="M207.925 9.51923L207.633 116.756C207.633 116.756 157.217 112.227 134.094 131.886L134.214 24.4133C134.214 24.4133 172.939 3.85925 207.925 9.51923Z" fill="#EFE8D9"/>
<path d="M131.702 30.8852C131.512 30.6302 126.785 24.6048 117.785 18.4995C112.565 14.9565 106.905 12.1107 100.947 10.0343C95.1136 8.01489 89.0379 6.77784 82.8789 6.35547V9.36817C97.5503 10.4416 108.853 16.0996 116.003 20.9241C122.369 25.2195 126.562 29.5587 128.345 31.5684C129.7 32.9199 130.926 34.3956 132.005 35.9761L132.016 31.2906L131.702 30.8852Z" fill="#E0DBC3"/>
<path d="M131.702 42.2465C131.512 41.9915 126.785 35.9661 117.785 29.8627C112.566 26.3177 106.905 23.4711 100.947 21.3956C95.1139 19.3754 89.038 18.1383 82.8789 17.7168V20.7295C97.5503 21.8029 108.853 27.4609 116.003 32.2854C122.371 36.5809 126.562 40.92 128.345 42.9298C129.7 44.2813 130.926 45.757 132.005 47.3375L132.016 42.6538L131.702 42.2465Z" fill="#E0DBC3"/>
<path d="M131.702 53.6137C131.512 53.3587 126.785 47.3333 117.785 41.228C112.565 37.6842 106.905 34.8384 100.947 32.7628C95.1141 30.7416 89.0381 29.5045 82.8789 29.084V32.0967C97.5503 33.17 108.853 38.8281 116.003 43.6526C122.371 47.948 126.562 52.2872 128.345 54.2969C129.7 55.6484 130.926 57.1242 132.005 58.7046L132.016 54.021L131.702 53.6137Z" fill="#E0DBC3"/>
<path d="M131.702 64.975C131.512 64.72 126.785 58.6851 117.785 52.5893C112.565 49.0456 106.905 46.1997 100.947 44.1241C95.1139 42.1038 89.038 40.8668 82.8789 40.4453V43.4694C97.5503 44.5428 108.853 50.2009 116.003 55.0254C122.371 59.3208 126.562 63.6599 128.345 65.6697C129.7 67.0212 130.926 68.4969 132.005 70.0774L132.016 65.3937L131.702 64.975Z" fill="#E0DBC3"/>
<path d="M131.288 85.659C131.071 85.423 125.864 79.8011 116.386 74.478C110.889 71.3825 105.01 69.0197 98.9 67.4496C92.9178 65.9223 86.7593 65.1965 80.5859 65.2914L80.8372 68.2927C95.5466 68.1386 107.291 72.8336 114.81 77.0472C121.513 80.7964 126.052 84.7721 127.997 86.6258C129.46 87.8581 130.805 89.2241 132.015 90.7061L131.634 86.0396L131.288 85.659Z" fill="#E0DBC3"/>
<path d="M131.296 97.0219C131.079 96.7859 125.872 91.164 116.394 85.8409C110.898 82.742 105.021 80.3747 98.9117 78.7992C92.9295 77.2718 86.771 76.5461 80.5977 76.6411L80.8489 79.6423C95.5583 79.4882 107.303 84.1832 114.822 88.3968C121.525 92.146 126.064 96.1217 128.009 97.9754C129.471 99.2096 130.815 100.578 132.023 102.061L131.642 97.3949L131.296 97.0219Z" fill="#E0DBC3"/>
<path d="M131.296 108.388C131.079 108.152 125.872 102.53 116.394 97.2066C110.898 94.1102 105.021 91.746 98.9117 90.1744C92.9295 88.6471 86.771 87.9214 80.5977 88.0163L80.8489 91.0176C95.5583 90.8634 107.303 95.5585 114.822 99.7721C121.525 103.521 126.064 107.497 128.009 109.351C129.471 110.585 130.815 111.953 132.023 113.437L131.642 108.77L131.296 108.388Z" fill="#E0DBC3"/>
<path d="M131.296 119.754C131.079 119.518 125.872 113.896 116.394 108.573C110.898 105.474 105.021 103.107 98.9117 101.532C92.9295 100.004 86.771 99.2785 80.5977 99.3735L80.8489 102.375C95.5583 102.221 107.303 106.916 114.822 111.129C121.525 114.878 126.064 118.854 128.009 120.708C129.471 121.942 130.815 123.31 132.023 124.794L131.642 120.127L131.296 119.754Z" fill="#E0DBC3"/>
<path d="M131.296 74.2978C131.079 74.0618 125.872 68.4399 116.394 63.1168C110.898 60.0203 105.021 57.6562 98.9117 56.0846C92.9295 54.5573 86.771 53.8315 80.5977 53.9265L80.8489 56.9277C95.5583 56.7736 107.303 61.4686 114.822 65.6822C121.525 69.4314 126.064 73.4071 128.009 75.2608C129.471 76.4951 130.815 77.863 132.023 79.3469L131.642 74.6803L131.296 74.2978Z" fill="#E0DBC3"/>
<path d="M156.047 25.5656C166.36 22.2008 181.962 18.2594 197.735 18.5905C199.433 18.6248 201.105 18.7098 202.75 18.8456L202.819 15.5017C201.169 15.3748 199.498 15.2917 197.806 15.2524C181.564 14.9136 165.57 18.9483 155.012 22.393C149.55 24.1658 144.185 26.2221 138.938 28.5535V32.1866L139.411 31.9963C144.834 29.5482 150.388 27.4013 156.047 25.5656Z" fill="#E0DBC3"/>
<path d="M156.047 36.6166C166.36 33.2538 181.962 29.3123 197.735 29.6416C199.433 29.6784 201.105 29.7634 202.75 29.8966L202.819 26.5547C201.169 26.4278 199.498 26.3447 197.806 26.3054C181.564 25.9647 165.57 29.9994 155.012 33.4441C149.55 35.2169 144.185 37.2732 138.938 39.6046V43.2396L139.411 43.0493C144.833 40.5995 150.387 38.4519 156.047 36.6166Z" fill="#E0DBC3"/>
<path d="M156.047 47.6556C166.36 44.2909 181.962 40.3494 197.735 40.6806C199.433 40.7148 201.105 40.7998 202.75 40.9356L202.819 37.5918C201.169 37.4649 199.498 37.3818 197.806 37.3425C181.564 37.0018 165.57 41.0365 155.012 44.4812C149.55 46.2548 144.185 48.3111 138.938 50.6417V54.2767L139.411 54.0959C144.833 51.6437 150.387 49.4936 156.047 47.6556Z" fill="#E0DBC3"/>
<path d="M156.047 58.7121C166.36 55.3473 181.962 51.4058 197.735 51.737C199.433 51.7738 201.105 51.8588 202.75 51.992L202.819 48.6482C201.169 48.5213 199.498 48.4382 197.806 48.3989C181.564 48.0601 165.57 52.0948 155.012 55.5395C149.55 57.3123 144.185 59.3686 138.938 61.7V65.3331L139.411 65.1428C144.834 62.6946 150.388 60.5478 156.047 58.7121Z" fill="#E0DBC3"/>
<path d="M156.515 69.2717C167.018 66.5578 182.835 63.5984 198.559 64.9135C200.249 65.0569 201.911 65.2472 203.546 65.4844L203.825 62.152C202.189 61.9198 200.526 61.7295 198.837 61.5811C182.647 60.2279 166.432 63.2559 155.681 66.0345C150.009 67.4901 144.419 69.2467 138.934 71.2967V74.8327L139.505 74.6538C145.071 72.5467 150.75 70.7499 156.515 69.2717Z" fill="#E0DBC3"/>
<path d="M156.517 80.3197C167.016 77.6058 182.836 74.6483 198.557 75.9634C200.25 76.1042 201.913 76.2945 203.546 76.5343L203.825 73.2019C202.189 72.9697 200.526 72.7826 198.837 72.6405C182.647 71.2854 166.432 74.3133 155.681 77.0919C150.009 78.5471 144.418 80.3043 138.934 82.3561V85.8902L139.505 85.7132C145.071 83.6017 150.751 81.8011 156.517 80.3197Z" fill="#E0DBC3"/>
<path d="M156.517 91.3715C167.018 88.6576 182.835 85.6982 198.559 87.0133C200.249 87.1541 201.911 87.3444 203.546 87.5842L203.825 84.2537C202.189 84.0203 200.526 83.8299 198.837 83.6828C182.647 82.3296 166.432 85.3556 155.681 88.1342C150.009 89.5894 144.418 91.3466 138.934 93.3984V96.9477L139.505 96.7688C145.071 94.6563 150.751 92.8544 156.517 91.3715Z" fill="#E0DBC3"/>
<path d="M156.517 102.42C167.018 99.7062 182.835 96.7468 198.559 98.0619C200.249 98.2028 201.911 98.3931 203.546 98.6329L203.825 95.3004C202.189 95.0683 200.526 94.8779 198.837 94.7295C182.647 93.3764 166.432 96.4043 155.681 99.1829C150.009 100.639 144.419 102.395 138.934 104.445V107.987L139.505 107.808C145.071 105.699 150.751 103.9 156.517 102.42Z" fill="#E0DBC3"/>
<path d="M155.681 110.236C150.009 111.691 144.418 113.448 138.934 115.5V119.036L139.505 118.857C145.07 116.748 150.747 114.949 156.511 113.467C167.013 110.754 182.83 107.796 198.554 109.111C200.244 109.252 201.906 109.442 203.54 109.682L203.82 106.35C202.183 106.117 200.52 105.927 198.831 105.779C182.643 104.429 166.432 107.457 155.681 110.236Z" fill="#E0DBC3"/>
<path d="M142.85 73.9195L148.196 80.1847L148.209 18.2581C143.625 19.8224 139.948 21.2764 137.516 22.2946V80.1847L142.85 73.9195Z" fill="#F06422"/>
<path d="M288.162 113.784C289.363 115.179 288.905 118.268 287.137 120.683C285.369 123.098 282.963 123.918 281.76 122.531L249.932 85.5736C248.729 84.1786 249.19 81.0898 250.958 78.6766C252.724 76.2615 255.131 75.4412 256.332 76.8286L288.162 113.784Z" fill="#9D9E9F"/>
<path d="M279.204 172.963C278.824 174.967 276.473 175.987 273.935 175.247C271.394 174.499 269.635 172.271 270.006 170.267L279.836 117.169C280.217 115.163 282.565 114.143 285.108 114.885C287.647 115.629 289.403 117.858 289.032 119.863L279.204 172.963Z" fill="#9D9E9F"/>
<path d="M252.805 166.855H240.395V171.792H252.805V166.855Z" fill="#323F48"/>
<path d="M251.072 165.484H242.133V166.855H251.072V165.484Z" fill="#9D9E9F"/>
<path d="M233.366 101.357C233.366 103.922 232.605 106.429 231.18 108.561C229.755 110.694 227.73 112.356 225.36 113.338C222.991 114.319 220.383 114.576 217.868 114.076C215.352 113.575 213.042 112.34 211.228 110.527C209.414 108.713 208.179 106.402 207.679 103.887C207.179 101.371 207.435 98.7637 208.417 96.3941C209.398 94.0245 211.061 91.9991 213.193 90.5742C215.326 89.1492 217.833 88.3887 220.398 88.3887C223.837 88.3887 227.136 89.755 229.568 92.1869C232 94.6189 233.366 97.9174 233.366 101.357Z" fill="#F3D29C"/>
<path d="M190.719 77.8665L240.079 132.082C255.304 118.217 256.604 94.8407 242.974 79.8705C229.343 64.9003 205.95 64.0001 190.719 77.8665Z" fill="#323F48"/>
<path d="M285.179 114.867C286.38 116.262 286.702 118.293 285.889 119.393C285.082 120.497 283.453 120.263 282.25 118.868L250.422 81.9124C249.219 80.5173 248.899 78.4867 249.71 77.3867C250.519 76.2828 252.148 76.5188 253.349 77.9138L285.179 114.867Z" fill="#D0D1D2"/>
<path d="M261.121 67.0655C263.055 69.1926 264.065 72.0002 263.93 74.8717C263.796 77.7432 262.526 80.4437 260.402 82.3802L239.981 100.972C237.854 102.906 235.047 103.917 232.175 103.782C229.304 103.648 226.603 102.379 224.666 100.255L220.967 96.1837C219.033 94.0569 218.022 91.2494 218.156 88.3779C218.291 85.5065 219.56 82.8058 221.684 80.8691L242.107 62.2772C244.234 60.3429 247.042 59.3321 249.914 59.467C252.786 59.6019 255.487 60.8714 257.423 62.9966L261.121 67.0655Z" fill="#323F48"/>
<path d="M276.406 176.255C276.025 178.259 274.704 179.582 273.437 179.209C272.166 178.828 271.437 176.908 271.808 174.904L281.637 121.806C282.018 119.802 283.339 118.479 284.608 118.852C285.878 119.233 286.607 121.151 286.236 123.155L276.406 176.255Z" fill="#D0D1D2"/>
<path d="M291.651 187.946H230.39L229.715 177.275H290.975L291.651 187.946Z" fill="#323F48"/>
<path d="M284.391 169.137H236.293V185.412H284.391V169.137Z" fill="#323F48"/>
<path d="M294.155 115.852C294.822 117.601 294.956 119.509 294.539 121.334C294.122 123.159 293.173 124.82 291.812 126.106C290.452 127.392 288.74 128.245 286.895 128.559C285.049 128.872 283.152 128.631 281.443 127.866C279.734 127.101 278.29 125.847 277.294 124.262C276.298 122.676 275.795 120.831 275.847 118.96C275.9 117.089 276.507 115.275 277.59 113.748C278.673 112.221 280.185 111.05 281.934 110.382C283.096 109.939 284.333 109.729 285.576 109.764C286.819 109.798 288.043 110.078 289.177 110.586C290.312 111.094 291.336 111.82 292.19 112.724C293.044 113.627 293.711 114.69 294.155 115.852Z" fill="#323F48"/>
<path d="M248.108 66.7802L233.36 78.1439C209.347 71.1517 199.484 81.6324 199.484 81.6324L202.786 85.1342C209.404 78.2372 234.322 80.4201 234.322 80.4201L248.822 68.0268C251.709 65.7696 254.362 66.7802 254.362 66.7802C251.499 65.0731 248.108 66.7802 248.108 66.7802Z" fill="#4E5962"/>
</g>
<defs>
<clipPath id="clip0_1983_654">
<rect width="295" height="211.522" fill="white"/>
</clipPath>
</defs>
</svg>
