<svg width="15" height="15" viewBox="0 0 15 15" fill="none" xmlns="http://www.w3.org/2000/svg">
<g clip-path="url(#clip0_1701_2444)">
<rect width="14.4" height="14.4" transform="translate(0.238281 0.100159)" fill="#1877F2"/>
<path d="M14.3391 7.34221C14.3391 3.53144 11.2498 0.442208 7.43906 0.442208C3.62829 0.442208 0.539062 3.53144 0.539062 7.34221C0.539062 10.7862 3.06229 13.6407 6.36094 14.1584V9.33674H4.60898V7.34221H6.36094V5.82205C6.36094 4.09274 7.39106 3.13752 8.96717 3.13752C9.72209 3.13752 10.5117 3.27229 10.5117 3.27229V4.97033H9.64164C8.7845 4.97033 8.51719 5.50221 8.51719 6.04788V7.34221H10.4309L10.1249 9.33674H8.51719V14.1584C11.8158 13.6407 14.3391 10.7862 14.3391 7.34221Z" fill="white"/>
</g>
<defs>
<clipPath id="clip0_1701_2444">
<rect width="14.4" height="14.4" fill="white" transform="translate(0.238281 0.100159)"/>
</clipPath>
</defs>
</svg>
