<svg width="15" height="15" viewBox="0 0 15 15" fill="none" xmlns="http://www.w3.org/2000/svg">
<rect width="14.4" height="14.4" transform="translate(0.4375 0.100159)" fill="white"/>
<path fill-rule="evenodd" clip-rule="evenodd" d="M14.2607 7.45702C14.2607 6.96774 14.2168 6.49729 14.1353 6.04565H7.63672V8.7147H11.3502C11.1902 9.5772 10.7041 10.308 9.97331 10.7972V12.5285H12.2033C13.508 11.3273 14.2607 9.55838 14.2607 7.45702Z" fill="#4285F4"/>
<path fill-rule="evenodd" clip-rule="evenodd" d="M7.63875 14.1999C9.50175 14.1999 11.0637 13.582 12.2053 12.5282L9.97534 10.7969C9.35748 11.2109 8.56711 11.4556 7.63875 11.4556C5.84161 11.4556 4.32047 10.2418 3.77788 8.6109H1.47266V10.3986C2.60802 12.6537 4.94147 14.1999 7.63875 14.1999Z" fill="#34A853"/>
<path fill-rule="evenodd" clip-rule="evenodd" d="M3.77742 8.61145C3.63942 8.19745 3.56101 7.75522 3.56101 7.30045C3.56101 6.84568 3.63942 6.40345 3.77742 5.98945V4.20172H1.47219C1.00487 5.13322 0.738281 6.18704 0.738281 7.30045C0.738281 8.41386 1.00487 9.46768 1.47219 10.3992L3.77742 8.61145Z" fill="#FBBC05"/>
<path fill-rule="evenodd" clip-rule="evenodd" d="M7.63875 3.14446C8.65179 3.14446 9.56134 3.4926 10.2764 4.17633L12.2555 2.19728C11.0605 1.08387 9.49861 0.400146 7.63875 0.400146C4.94148 0.400146 2.60802 1.94637 1.47266 4.20142L3.77788 5.98915C4.32047 4.35824 5.84161 3.14446 7.63875 3.14446Z" fill="#EA4335"/>
</svg>
