<svg width="16" height="16" viewBox="0 0 16 16" fill="none" xmlns="http://www.w3.org/2000/svg">
<path d="M11.7417 10.3295C12.529 9.25431 12.9999 7.93365 12.9999 6.50194C12.9999 2.91797 10.0839 0.00195312 6.49995 0.00195312C2.91599 0.00195312 0 2.91797 0 6.50194C0 10.0859 2.91602 13.0019 6.49999 13.0019C7.93169 13.0019 9.25248 12.5309 10.3277 11.7436L14.5859 16.0019L16 14.5878C16 14.5878 11.7417 10.3295 11.7417 10.3295ZM6.49999 11.0019C4.01854 11.0019 2.00001 8.98338 2.00001 6.50194C2.00001 4.0205 4.01854 2.00196 6.49999 2.00196C8.98143 2.00196 11 4.0205 11 6.50194C11 8.98338 8.9814 11.0019 6.49999 11.0019Z" fill="#0F335E"/>
</svg>
