<svg width="587" height="556" viewBox="0 0 587 556" fill="none" xmlns="http://www.w3.org/2000/svg">
<path opacity="0.05" d="M-53.2305 513.735C-5.83099 488.261 12.0909 454.672 0.53512 412.969C-16.7985 350.414 2.16393 310.481 54.4091 307.23C106.654 303.98 155.959 349.333 169.157 403.621C182.356 457.909 255.774 459.411 284.893 448.655C314.012 437.899 330.729 416.212 329.552 392.576C326.95 340.304 232.374 298.655 234.587 250.463C236.801 202.272 314.564 184.573 363.348 227.975C365.752 230.113 368.2 232.126 370.686 234.016C420.678 272.028 486.187 260.796 516.142 232.602C568.086 183.712 544.398 131.461 461.055 96.0077C335.585 40.1326 268.804 -21.1125 260.713 -87.7277" stroke="url(#paint0_linear_1308_477)" stroke-width="84.6892" stroke-linecap="round"/>
<defs>
<linearGradient id="paint0_linear_1308_477" x1="-53.2305" y1="513.735" x2="340.823" y2="-190.649" gradientUnits="userSpaceOnUse">
<stop stop-color="#EE7C00"/>
<stop offset="0.666667" stop-color="#EE7C00"/>
<stop offset="0.90625" stop-color="#B96B16"/>
<stop offset="1" stop-color="#EE7C00"/>
</linearGradient>
</defs>
</svg>
