<svg width="55" height="55" viewBox="0 0 55 55" fill="none" xmlns="http://www.w3.org/2000/svg">
<path d="M23.9255 27.4992C23.8115 27.4987 23.6992 27.4748 23.5949 27.4291L17.4688 24.8848V33.1288C19.2982 34.2843 21.4246 34.8833 23.5882 34.8527C25.5757 34.7808 27.5086 34.1862 29.1925 33.1288L29.4086 25.2091L24.2689 27.4037C24.1629 27.4596 24.0458 27.4921 23.9255 27.4992Z" fill="#EE7C00"/>
<path d="M54.533 51.9018L45.3025 42.6714C44.849 42.2219 44.1719 42.0843 43.5786 42.3217L41.3395 40.0826V40.0822C45.606 35.4856 47.8903 29.3931 47.6982 23.1248C47.5061 16.8561 44.8534 10.9156 40.3136 6.58763C35.7743 2.26035 29.7134 -0.104697 23.4425 0.00355913C17.1716 0.111815 11.1959 2.68496 6.80883 7.16673C2.42169 11.6479 -0.0245775 17.6769 0.000186196 23.9481C0.0245909 30.2198 2.5179 36.2288 6.9406 40.6761C11.3633 45.1231 17.3589 47.6493 23.63 47.7083C29.9012 47.7673 35.9436 45.3542 40.4488 40.9915L42.6879 43.2306V43.231C42.4647 43.8172 42.6067 44.4797 43.0504 44.923L52.287 54.1531C52.587 54.4495 52.9912 54.6163 53.4132 54.6176C54.0562 54.6163 54.6348 54.2276 54.8797 53.6334C55.1251 53.0388 54.988 52.3555 54.5327 51.9016L54.533 51.9018ZM40.2768 40.2607L40.1623 40.3689V40.3685C35.7898 44.6921 29.8864 47.1132 23.7377 47.1048C17.5884 47.0963 11.6921 44.659 7.33116 40.3237C2.9706 35.988 0.499458 30.1055 0.456065 23.957C0.412135 17.8082 2.79941 11.8909 7.09784 7.49368C11.3958 3.09677 17.2575 0.575534 23.4055 0.47966C29.5535 0.383786 35.4909 2.72054 39.9245 6.98114C44.3582 11.2423 46.9287 17.0818 47.077 23.2297C47.2252 29.3767 44.9387 35.3333 40.7157 39.8032C40.5759 39.9563 40.4295 40.109 40.2768 40.2616L40.2768 40.2607Z" fill="#EE7C00"/>
<path d="M39.8301 7.77901C35.5827 3.5325 29.8226 1.14701 23.8167 1.14746C17.8108 1.14746 12.0505 3.53386 7.80434 7.78083C3.55737 12.0278 1.17188 17.7878 1.17188 23.7932C1.17188 29.799 3.55737 35.5593 7.80434 39.8055C12.0509 44.0524 17.8109 46.4384 23.8167 46.4388C29.8225 46.4393 35.5828 44.0538 39.8301 39.8073C42.6527 37.0025 44.684 33.5014 45.718 29.6587C46.7519 25.8165 46.7519 21.7688 45.718 17.9255C44.6841 14.0833 42.6527 10.5822 39.8301 7.77742V7.77901ZM40.8032 20.3301L37.3936 21.7807V30.5848C37.3936 30.9357 37.1091 31.2206 36.7577 31.2206C36.4062 31.2206 36.1214 30.9358 36.1214 30.5848V22.3149L30.9116 24.5287C30.8508 24.5939 30.7771 24.6463 30.6955 24.6813L30.6001 24.7195C30.6618 24.8162 30.6928 24.9294 30.6888 25.0439L30.4727 33.2116C30.4745 33.5905 30.2917 33.9464 29.9829 34.166C28.0792 35.3862 25.8815 36.0701 23.6216 36.1441H23.3225C20.9689 36.1211 18.6695 35.4355 16.6879 34.166C16.3657 33.9406 16.1811 33.5661 16.198 33.1734V24.6303C16.1882 24.5712 16.1882 24.5113 16.198 24.4523L6.84061 20.591C6.46699 20.4011 6.23181 20.0177 6.23181 19.5984C6.23181 19.1795 6.46699 18.7961 6.84061 18.6062L23.5072 11.5007C23.7233 11.4115 23.9656 11.4115 24.1813 11.5007L40.7911 18.339C41.1638 18.5307 41.3986 18.915 41.3986 19.3343C41.3986 19.7541 41.1638 20.1383 40.7911 20.33L40.8032 20.3301Z" fill="#EE7C00"/>
<path d="M7.75391 19.5916L17.1685 23.4658C17.2582 23.464 17.3469 23.4813 17.4294 23.5164L23.9243 26.1881L29.8339 23.6438C29.8947 23.5782 29.9683 23.5262 30.0504 23.4912L34.6878 21.513C27.9254 19.7696 23.6319 18.6119 23.6319 18.6119C23.2911 18.5241 23.0856 18.1766 23.1735 17.8359C23.2613 17.4951 23.6088 17.2901 23.9496 17.3779C23.9496 17.3779 28.8798 18.6759 36.5131 20.7174H36.5895L39.8908 19.3117L23.8478 12.7725L7.75391 19.5916Z" fill="#EE7C00"/>
</svg>
