<svg width="49" height="55" viewBox="0 0 49 55" fill="none" xmlns="http://www.w3.org/2000/svg">
<path d="M32.352 46.7978C32.3273 46.6341 32.3273 46.4826 32.352 46.3306L29.0001 43.6444C27.9137 44.4152 26.7332 45.011 25.5078 45.4316C24.9357 45.6185 24.4439 45.7584 23.9426 45.8638C23.6391 45.9338 23.3351 45.9925 23.0082 46.0158C22.8796 46.0508 22.7513 46.0624 22.6343 46.0741L22.5173 46.0857L22.459 46.0974H22.3187C22.2837 46.1091 22.2133 46.1207 22.1317 46.1324C21.8049 46.1673 21.4892 46.179 21.1624 46.179H20.7068C20.5199 46.179 20.3213 46.1673 20.1231 46.1557H20.0635C20.0169 46.1557 19.9361 46.1557 19.8545 46.144H19.725L19.6442 46.1207C19.247 46.0974 18.8385 46.0274 18.348 45.9338L18.3946 44.7589H18.3933L18.2077 45.9104C18.1377 45.8988 18.0557 45.8871 17.9857 45.8755C17.4602 45.7705 16.9581 45.6302 16.3506 45.4316C15.0776 44.9994 13.8631 44.3806 12.7534 43.5745L12.6247 43.4929C12.4378 43.3525 12.2625 43.2126 12.0643 43.0606L11.9593 42.979C11.8544 42.8974 11.7491 42.8037 11.6441 42.7105C11.5742 42.6522 11.5038 42.5939 11.4455 42.5235L11.3168 42.4186C11.1765 42.3137 11.0483 42.1967 10.9313 42.0563C10.8143 41.9514 10.7197 41.8344 10.6161 41.7178L10.3812 41.4492C10.2771 41.3443 10.1838 41.239 10.1018 41.134C9.75164 40.7368 9.45932 40.3283 9.24905 40.0127C9.16744 39.9077 9.07375 39.7674 8.96753 39.6038L8.9101 39.5221C8.85181 39.4522 8.81684 39.3702 8.78143 39.3002C8.54783 38.938 8.3259 38.5295 8.08065 38.0273C8.06899 37.9807 7.95197 37.7004 7.95197 37.7004C7.84705 37.4902 7.75206 37.2682 7.67174 37.0579C7.6018 36.906 7.55473 36.7311 7.49645 36.5558L7.36777 36.1702L7.32114 35.9949L7.29782 35.9249L7.28616 35.8783L7.22787 35.668C7.18124 35.5044 7.13461 35.3412 7.0992 35.1775C7.04091 34.9439 6.98262 34.6054 6.92303 34.2781C6.91266 34.1849 6.88892 34.0912 6.8764 33.9863H6.86603L6.8194 33.6123C6.78442 33.3205 6.74945 32.9932 6.73779 32.6896V32.5027C6.73779 32.0471 6.74945 31.6853 6.76111 31.323L6.78443 30.6222L6.80774 30.377C6.92346 29.3377 7.18166 28.2863 7.54349 27.2587C7.55515 27.2353 7.57846 27.1654 7.61344 27.0717C7.87035 26.3593 8.12725 25.7872 8.39582 25.2846C10.4632 21.3955 14.1303 18.7323 18.4632 17.9849L18.7784 17.9382C19.4209 17.845 19.9581 17.7979 20.4718 17.7863C20.6238 17.7746 20.8103 17.7746 20.9856 17.7746C21.6748 17.7746 22.3755 17.8329 23.123 17.9382C23.24 17.9499 23.3099 17.9616 23.3799 17.9849C27.6661 18.6857 31.3803 21.3601 33.459 25.2963C33.7625 25.8684 34.0302 26.4759 34.2763 27.1534L34.3217 27.27C34.6848 28.2859 34.93 29.3373 35.0471 30.3766C35.0587 30.4465 35.0587 30.5402 35.0587 30.6452C35.082 30.937 35.0937 31.1473 35.0937 31.3692C35.117 31.6728 35.1287 32.0467 35.117 32.4319C35.117 32.5251 35.1287 32.6305 35.117 32.7354C35.1054 32.9923 35.082 33.2725 35.0471 33.5295V33.6814L35.0121 33.7864C34.9888 33.9267 34.9655 34.0666 34.9421 34.2186C34.8722 34.6275 34.8135 34.9543 34.7435 35.2346C34.7202 35.3511 34.6736 35.5148 34.6265 35.6784L34.5449 35.9587L34.5216 36.0286C34.5216 36.0403 34.4983 36.1452 34.4983 36.1452L34.4167 36.3322C34.3933 36.4254 34.3584 36.5191 34.3351 36.6124C34.2884 36.7644 34.2418 36.9159 34.1947 37.0562C34.1598 37.1612 34.1131 37.2665 34.0544 37.3598L37.3714 40.0342C37.605 39.9526 37.8502 39.9176 38.1071 39.9176C38.7146 39.9176 39.275 40.1162 39.7539 40.4781L40.0807 40.735L40.0838 12.5539C39.9318 12.6005 39.7686 12.6355 39.6049 12.6471L31.266 13.1493H31.231C29.1403 13.1493 27.4352 11.4675 27.4352 9.38852L27.4348 0.582786C27.4348 0.372513 27.4697 0.185542 27.5397 -0.000976562H2.16064C0.969399 -0.000976562 0 0.968368 0 2.15967V46.8913C0 48.0826 0.969344 49.052 2.16064 49.052H33.9397L33.3439 48.5731C32.7838 48.1409 32.4332 47.5101 32.3516 46.7977M7.07096 5.21964H24.3886C24.7112 5.21964 24.9724 5.4813 24.9724 5.8034C24.9724 6.1268 24.7107 6.38716 24.3886 6.38716H7.07096C6.74842 6.38716 6.4872 6.12679 6.4872 5.8034C6.48677 5.48085 6.74843 5.21964 7.07096 5.21964ZM7.07096 9.76841H24.3886C24.7112 9.76841 24.9724 10.0301 24.9724 10.3522C24.9724 10.6747 24.7107 10.9359 24.3886 10.9359L7.07096 10.9364C6.74842 10.9364 6.4872 10.6747 6.4872 10.3526C6.48677 10.0301 6.74843 9.76841 7.07096 9.76841ZM6.48675 14.9001C6.48675 14.5776 6.74842 14.3164 7.07052 14.3164H24.3882C24.7107 14.3164 24.9719 14.578 24.9719 14.9001C24.9719 15.2227 24.7103 15.4839 24.3882 15.4839L7.07052 15.4843C6.74797 15.4843 6.48631 15.2227 6.48631 14.9001" fill="#EE7C00"/>
<path d="M31.2311 11.9826H31.2332L39.5386 11.4804C39.7687 11.4675 39.9682 11.3202 40.0489 11.1056C40.1305 10.8897 40.0791 10.6479 39.9168 10.4856L29.6016 0.171591C29.4358 0.00363161 29.1845 -0.0455902 28.9664 0.0442202C28.7479 0.134031 28.6055 0.347763 28.6055 0.583945V9.39145C28.6055 10.8207 29.7678 11.9826 31.2311 11.9826Z" fill="#EE7C00"/>
<path d="M20.3301 35.0762C20.5007 35.0762 20.6686 35.0028 20.7831 34.8612L23.9446 30.9804C24.148 30.7291 24.1104 30.3612 23.8604 30.1583C23.6104 29.954 23.2426 29.9938 23.0383 30.2425L20.2344 33.6868L18.8945 32.6673C18.6376 32.4722 18.2698 32.5227 18.0759 32.7796C17.8807 33.0365 17.9312 33.4022 18.1882 33.5969L19.9775 34.9575C20.0829 35.0378 20.2076 35.0763 20.3303 35.0763" fill="#EE7C00"/>
<path d="M48.5353 50.0368C48.4498 49.2847 48.0776 48.6141 47.4433 48.1133L39.0344 41.4034C38.3898 40.8987 37.4765 41.0019 36.9485 41.6439L33.8405 45.5657C33.5884 45.874 33.4727 46.2644 33.5171 46.6625C33.5616 47.0632 33.7602 47.4181 34.0707 47.6612L42.5077 54.378C43.0275 54.796 43.6531 54.9993 44.2771 54.9993C45.104 54.9993 45.9274 54.6418 46.4917 53.954C46.493 53.9518 46.4965 53.9479 46.4986 53.9458L47.9338 52.1202C48.4079 51.5308 48.6216 50.7916 48.5353 50.0368Z" fill="#EE7C00"/>
<path d="M18.3929 44.7581C18.4477 44.7676 18.5017 44.7767 18.5565 44.7897C19.0004 44.8713 19.4209 44.9416 19.8061 44.965C19.8411 44.9753 19.8761 44.9753 19.911 44.9753C20.016 44.9883 20.098 44.9883 20.1913 44.9883C20.3666 44.9986 20.5415 45.0103 20.7051 45.0103H21.1606C21.4525 45.0103 21.7444 44.9986 22.0367 44.965C22.13 44.965 22.2237 44.9287 22.3169 44.9287C22.3636 44.9183 22.4102 44.9183 22.4573 44.9183C22.5622 44.9054 22.7025 44.895 22.8428 44.8587C23.1114 44.8484 23.38 44.7897 23.7073 44.7184C24.1628 44.626 24.6183 44.4978 25.1322 44.3212C26.3118 43.9252 27.4098 43.3518 28.4141 42.629C28.4607 42.6057 28.5074 42.5823 28.5428 42.5461C28.7181 42.4174 28.8813 42.2905 29.045 42.1488C29.1853 42.0448 29.3252 41.9515 29.4538 41.8336C29.5354 41.7762 29.5942 41.6933 29.6641 41.6233C29.7224 41.578 29.7695 41.5417 29.8161 41.4947C29.921 41.4247 30.0031 41.344 30.038 41.2973C30.2017 41.1454 30.3416 40.9575 30.5052 40.7939C30.6222 40.6549 30.7505 40.5253 30.8675 40.385C31.1361 40.0707 31.3813 39.7425 31.6149 39.404C31.7198 39.2533 31.8252 39.1013 31.9301 38.9498C31.9418 38.9251 31.9651 38.9031 31.9767 38.8668C32.0234 38.8094 32.0467 38.7498 32.1054 38.6695C32.3273 38.2947 32.526 37.9208 32.7129 37.5356C32.7362 37.4774 32.7596 37.4186 32.7829 37.3603C32.8878 37.1267 33.0048 36.8932 33.0981 36.6492C33.1797 36.4273 33.2384 36.182 33.32 35.9471C33.3317 35.8897 33.3666 35.8431 33.3783 35.7835C33.4016 35.7252 33.4133 35.6548 33.4366 35.5978C33.4949 35.3746 33.5653 35.1656 33.6119 34.9437C33.6818 34.6751 33.7289 34.3702 33.7755 34.0784C33.8105 33.8797 33.8455 33.6941 33.8688 33.5071C33.8688 33.4942 33.8805 33.4838 33.8805 33.4605C33.9154 33.1919 33.9388 32.9104 33.9504 32.6418C33.9621 32.5611 33.9504 32.4795 33.9504 32.3862C33.9621 32.0477 33.9504 31.7088 33.9271 31.3702C33.9271 31.1716 33.9154 30.973 33.9038 30.7619C33.8921 30.6811 33.9038 30.5982 33.8921 30.5179C33.7751 29.5239 33.5415 28.5675 33.2147 27.6449C33.203 27.6086 33.1913 27.5853 33.1797 27.5503C32.9694 26.9665 32.7242 26.3953 32.4323 25.8465C30.4936 22.178 27.0246 19.7614 23.1006 19.1181C23.054 19.1077 23.0073 19.1077 22.9603 19.096C22.1546 18.979 21.3367 18.9199 20.4961 18.9557C19.9939 18.9661 19.5034 19.0131 19.0129 19.0831C18.8964 19.1077 18.7793 19.1181 18.6628 19.1414C14.7737 19.8085 11.3514 22.2144 9.42439 25.8465C9.13251 26.3828 8.89891 26.9548 8.68864 27.5387C8.66532 27.575 8.65366 27.6216 8.642 27.6553C8.31515 28.5676 8.08156 29.524 7.96454 30.5179C7.96454 30.5987 7.96454 30.6816 7.95288 30.7619C7.94123 30.9605 7.94122 31.1591 7.92957 31.3703C7.91791 31.7088 7.90625 32.0581 7.90625 32.397C7.91791 32.4799 7.90625 32.5615 7.90625 32.6423C7.91791 32.9109 7.94122 33.1924 7.9762 33.448C7.98786 33.461 7.98786 33.4843 7.98786 33.4946C8.01117 33.6945 8.04615 33.8927 8.08112 34.0914C8.12775 34.3832 8.17439 34.6751 8.24477 34.9312C8.2914 35.1544 8.36178 35.3634 8.42007 35.5853C8.44339 35.6449 8.45504 35.7023 8.4667 35.7606C8.49002 35.8202 8.51333 35.8668 8.52499 35.9243C8.6066 36.1592 8.66532 36.4044 8.75859 36.6367C8.85185 36.882 8.96886 37.1272 9.07379 37.3608C9.09711 37.4191 9.12042 37.4774 9.14374 37.5253C9.3307 37.9213 9.52932 38.3068 9.77457 38.6932C9.80954 38.7507 9.83286 38.8098 9.87992 38.8789C9.90324 38.9139 9.92655 38.9372 9.93821 38.9618C10.0315 39.1021 10.1252 39.2291 10.2184 39.3577C10.4637 39.72 10.7089 40.0585 11.0008 40.397C11.1058 40.5257 11.2344 40.6552 11.351 40.7835C11.4913 40.9342 11.6196 41.1095 11.7716 41.2494C11.8415 41.331 11.9352 41.4247 12.0401 41.4946C12.0868 41.5413 12.1451 41.5775 12.2038 41.6358C12.2737 41.6932 12.3325 41.7761 12.4141 41.8331C12.5311 41.951 12.671 42.0447 12.7996 42.1483C12.9749 42.2895 13.1382 42.4169 13.3134 42.5456C13.3484 42.5689 13.3951 42.6052 13.4305 42.6285C14.4348 43.3513 15.5329 43.9247 16.7241 44.3207C17.2379 44.4969 17.6934 44.6255 18.2422 44.7296C18.2914 44.7417 18.3415 44.7499 18.3929 44.7581ZM17.0125 38.6942C16.5906 38.4455 16.1891 38.1593 15.8342 37.8557C14.7327 36.9002 13.9222 35.6507 13.503 34.2525L13.4447 34.0724C13.3385 33.7607 13.2569 33.3578 13.2042 32.8751C13.1748 32.6476 13.1632 32.5271 13.1576 32.4066C12.9602 28.5909 15.6148 25.1457 19.3277 24.3595C19.5613 24.3103 19.721 24.2822 19.8031 24.2779L20.0647 24.2559C20.3683 24.2196 20.6744 24.2023 20.9771 24.2023C23.8397 24.2023 26.4499 25.7745 27.7906 28.3051C28.2626 29.182 28.5523 30.119 28.6676 31.1199C28.804 32.353 28.6443 33.6052 28.2064 34.7114C28.0359 35.1587 27.8584 35.5279 27.6434 35.8932C27.57 36.0076 27.5022 36.1164 27.4227 36.2576C27.2358 36.5693 26.9521 36.935 26.6157 37.2887L26.598 37.299L26.2137 37.6704C25.4197 38.4342 24.4991 38.9938 23.4771 39.3323C23.142 39.448 22.9002 39.5145 22.6761 39.5598L22.3994 39.6181L21.8389 39.6414L21.6204 39.7187C21.5034 39.7317 21.3847 39.7373 21.269 39.7373H21.1032C21.1032 39.7373 20.7785 39.7584 20.7003 39.7584C20.5798 39.7584 20.462 39.7502 20.3454 39.7386L20.1899 39.7256C19.9775 39.7105 19.7392 39.6721 19.4412 39.6052L19.2206 39.5607C19.0056 39.5231 18.7534 39.4532 18.4507 39.3448C17.9097 39.157 17.4387 38.9432 17.0125 38.6941" fill="#EE7C00"/>
<path d="M32.5715 40.0703C32.3146 40.4442 32.046 40.7944 31.7542 41.145C31.6959 41.2141 31.2287 41.7404 31.1704 41.7978C31.0771 41.9041 30.9834 41.9978 30.891 42.0897C30.7965 42.2076 30.6795 42.313 30.5525 42.4062C30.5279 42.4295 30.4929 42.4529 30.458 42.4878C30.388 42.5578 30.3073 42.6515 30.2011 42.7331C30.1194 42.803 30.0491 42.8618 29.9688 42.92L32.724 45.1389C32.7823 45.034 32.8526 44.9287 32.9355 44.8237L36.0292 40.9217C36.1108 40.8293 36.1929 40.736 36.2861 40.6544L33.5534 38.4589C33.413 38.7274 33.2615 38.996 33.1095 39.2646L33.0745 39.2529C33.0629 39.2879 33.0512 39.3229 33.0395 39.3578L33.0512 39.3695L32.9355 39.5448L32.5715 40.0703Z" fill="#EE7C00"/>
</svg>
